STARTFONT 2.1
FONT -WRI-Mathematica2-Bold-R-Normal--18-180-75-75-p-110-Adobe-FontSpecific
SIZE 18 75 75
FONTBOUNDINGBOX 46 113 -1 -73
STARTPROPERTIES 16
FOUNDRY "WRI"
FAMILY_NAME "Mathematica2"
WEIGHT_NAME "Bold"
SLANT "R"
SETWIDTH_NAME "Normal"
PIXEL_SIZE 18
POINT_SIZE 180
RESOLUTION_X 75
RESOLUTION_Y 75
SPACING "p"
AVERAGE_WIDTH 110
CHARSET_REGISTRY "Adobe"
CHARSET_ENCODING "FontSpecific"
FONT_DESCENT 73
FONT_ASCENT 40
DEFAULT_CHAR 32
ENDPROPERTIES
CHARS 223
STARTCHAR Space
ENCODING 32
SWIDTH 189 0
DWIDTH 3 0
BBX 0 0 0 0
BITMAP
ENDCHAR
STARTCHAR Radical1Extens
ENCODING 33
SWIDTH 230 0
DWIDTH 4 0
BBX 6 2 -1 3
BITMAP
fc
fc
ENDCHAR
STARTCHAR Radical2
ENCODING 34
SWIDTH 975 0
DWIDTH 18 0
BBX 18 30 0 -18
BITMAP
0003c0
0003c0
000300
000300
000600
000600
000600
000600
000600
000400
000c00
000c00
000c00
000c00
0c0c00
3c1800
ce1800
0e1800
071800
071800
039000
03b000
01f000
01f000
00f000
00e000
006000
006000
002000
002000
ENDCHAR
STARTCHAR Radical2Extens
ENCODING 35
SWIDTH 230 0
DWIDTH 4 0
BBX 6 2 -1 10
BITMAP
fc
fc
ENDCHAR
STARTCHAR Radical3
ENCODING 36
SWIDTH 1115 0
DWIDTH 20 0
BBX 20 51 0 -23
BITMAP
0000f0
0000f0
0000c0
0000c0
0000c0
000180
000180
000180
000180
000180
000180
000180
000300
000300
000300
000300
000300
000300
000300
000600
000600
000600
000600
000600
000600
000600
000c00
000c00
000c00
000c00
0c0c00
3c0c00
ce0c00
0e1800
0e1800
071800
071800
071800
039800
039800
03b000
01f000
01f000
00f000
00f000
00f000
007000
006000
006000
002000
002000
ENDCHAR
STARTCHAR Radical3Extens
ENCODING 37
SWIDTH 230 0
DWIDTH 4 0
BBX 6 2 -1 26
BITMAP
fc
fc
ENDCHAR
STARTCHAR Radical4
ENCODING 38
SWIDTH 1127 0
DWIDTH 20 0
BBX 21 71 0 -31
BITMAP
0000f8
0000f8
0000c0
0000c0
0000c0
0000c0
0000c0
0000c0
000180
000180
000180
000180
000180
000180
000180
000180
000180
000180
000180
000180
000180
000300
000300
000300
000300
000300
000300
000300
000300
000300
000300
000300
000300
000600
000600
000600
000600
000600
000600
000600
000600
000600
040600
3c0600
ce0600
0e0600
0e0c00
070c00
070c00
070c00
038c00
038c00
038c00
01cc00
01cc00
01cc00
00ec00
00ec00
00e800
007800
007800
007800
003800
003800
003800
001800
001800
001800
000800
000800
000800
ENDCHAR
STARTCHAR Radical4Extens
ENCODING 39
SWIDTH 230 0
DWIDTH 4 0
BBX 6 2 -1 38
BITMAP
fc
fc
ENDCHAR
STARTCHAR Radical5
ENCODING 40
SWIDTH 1070 0
DWIDTH 19 0
BBX 13 73 1 -34
BITMAP
0018
0018
0018
0018
0018
0018
0018
0018
0018
0018
0018
0018
0018
0018
0018
0018
0018
0018
0018
0018
0018
0018
0018
0018
0018
0018
0018
0018
0018
0018
0018
0018
0018
0018
0018
0018
0018
0018
0018
0018
0018
0818
1818
7c18
dc18
0c18
0e18
0e18
0618
0718
0718
0318
0398
0398
0198
01d8
01d8
00d8
00f8
00f8
0078
0078
0078
0038
0038
0038
0018
0018
0018
0008
0008
0008
0008
ENDCHAR
STARTCHAR Radical5VertExtens
ENCODING 41
SWIDTH 1070 0
DWIDTH 19 0
BBX 2 6 12 0
BITMAP
c0
c0
c0
c0
c0
c0
ENDCHAR
STARTCHAR Radical5Top
ENCODING 42
SWIDTH 1070 0
DWIDTH 19 0
BBX 8 6 12 0
BITMAP
ff
ff
c0
c0
c0
c0
ENDCHAR
STARTCHAR Radical5Extens
ENCODING 43
SWIDTH 230 0
DWIDTH 4 0
BBX 6 2 -1 4
BITMAP
fc
fc
ENDCHAR
STARTCHAR FixedFreeRadical1
ENCODING 44
SWIDTH 855 0
DWIDTH 15 0
BBX 14 19 1 -14
BITMAP
000c
000c
0018
0018
0018
0030
0030
1030
7860
9860
1c60
0c60
0ec0
06c0
07c0
0380
0380
0180
0100
ENDCHAR
STARTCHAR FixedFreeRadical2
ENCODING 45
SWIDTH 975 0
DWIDTH 18 0
BBX 15 30 1 -18
BITMAP
0006
0006
0004
000c
000c
000c
000c
0008
0018
0018
0018
0018
0010
0030
1830
7830
9c30
1c60
0e60
0e60
0660
0740
07c0
03c0
03c0
01c0
0180
0080
0080
0080
ENDCHAR
STARTCHAR FixedFreeRadical3
ENCODING 46
SWIDTH 1115 0
DWIDTH 20 0
BBX 18 52 1 -24
BITMAP
0000c0
0000c0
0000c0
000080
000180
000180
000180
000180
000180
000180
000100
000300
000300
000300
000300
000300
000300
000200
000600
000600
000600
000600
000600
000600
000400
000c00
000c00
000c00
000c00
000c00
080c00
7c0800
9c1800
1c1800
0e1800
0e1800
0f1800
071800
071000
03b000
03b000
03f000
01f000
01f000
00f000
00e000
00e000
006000
006000
002000
002000
002000
ENDCHAR
STARTCHAR FixedFreeRadical4
ENCODING 47
SWIDTH 1127 0
DWIDTH 20 0
BBX 17 71 1 -31
BITMAP
000180
000180
000180
000180
000180
000180
000300
000300
000300
000300
000300
000300
000300
000300
000300
000300
000300
000300
000300
000600
000600
000600
000600
000600
000600
000600
000600
000600
000600
000600
000600
000600
000400
000c00
000c00
000c00
000c00
000c00
000c00
000c00
000c00
000c00
080c00
780c00
9c0c00
1c0800
1c1800
0e1800
0e1800
0e1800
071800
071800
071800
039800
039800
039800
01d800
01d800
01d000
00f000
00f000
00f000
007000
007000
007000
003000
003000
003000
001000
001000
001000
ENDCHAR
STARTCHAR TexRad1
ENCODING 48
SWIDTH 855 0
DWIDTH 15 0
BBX 16 20 0 -18
BITMAP
000f
000f
000c
000c
0018
0018
0018
0830
3c30
7c30
9e60
0e60
0e60
07c0
07c0
03c0
03c0
0180
0180
0180
ENDCHAR
STARTCHAR TexRad2
ENCODING 49
SWIDTH 975 0
DWIDTH 18 0
BBX 17 30 1 -28
BITMAP
000780
000780
000600
000600
000c00
000c00
000c00
000c00
000c00
000800
001800
001800
001800
001800
181000
783000
bc3000
1c3000
0e3000
0e3000
076000
076000
03e000
03e000
01e000
01c000
00c000
00c000
004000
004000
ENDCHAR
STARTCHAR TexRad3
ENCODING 50
SWIDTH 1115 0
DWIDTH 20 0
BBX 19 51 1 -49
BITMAP
0001e0
0001e0
000180
000180
000180
000300
000300
000300
000300
000300
000300
000300
000600
000600
000600
000600
000600
000600
000600
000400
000c00
000c00
000c00
000c00
000c00
000c00
000800
001800
001800
001800
081800
781800
9c1800
1c1800
1c3000
0e3000
0e3000
0f3000
073000
073000
03b000
03e000
03e000
01e000
01e000
01e000
00e000
00e000
004000
004000
004000
ENDCHAR
STARTCHAR TexRad4
ENCODING 51
SWIDTH 1127 0
DWIDTH 20 0
BBX 19 71 1 -69
BITMAP
0001e0
0001e0
000180
000180
000180
000180
000100
000100
000300
000300
000300
000300
000300
000300
000300
000300
000300
000300
000200
000200
000200
000600
000600
000600
000600
000600
000600
000600
000600
000600
000400
000400
000400
000c00
000c00
000c00
000c00
000c00
000c00
000c00
000c00
000c00
180800
780800
9c0800
1c1800
1c1800
0e1800
0e1800
0e1800
071800
071800
071800
039800
039800
039000
01d000
01d000
01f000
01f000
00f000
00f000
00f000
007000
007000
007000
003000
002000
002000
001000
001000
ENDCHAR
STARTCHAR TexRad5
ENCODING 52
SWIDTH 1070 0
DWIDTH 19 0
BBX 14 75 1 -73
BITMAP
0018
0018
0018
0018
0018
0018
0018
0018
0018
0018
0018
0018
0018
0018
0018
0018
0018
0018
0018
0018
0018
0018
0018
0018
0018
0018
0018
0018
0018
0018
0018
0018
0018
0018
0018
0018
0018
0018
0018
0018
0018
0818
3818
dc18
1c18
1c18
0e18
0e18
0e18
0718
0718
0718
0398
0398
03d8
01d8
01d8
01f8
00f8
00f8
00f8
0078
0078
0078
0038
0038
0038
0038
0018
0018
0018
0008
0008
0008
0004
ENDCHAR
STARTCHAR TexRad5VertExt
ENCODING 53
SWIDTH 1070 0
DWIDTH 19 0
BBX 2 7 12 -5
BITMAP
c0
c0
c0
c0
c0
c0
c0
ENDCHAR
STARTCHAR TexRad5Top
ENCODING 54
SWIDTH 1070 0
DWIDTH 19 0
BBX 8 7 12 -5
BITMAP
ff
ff
c0
c0
c0
c0
c0
ENDCHAR
STARTCHAR TexRadExtens
ENCODING 55
SWIDTH 230 0
DWIDTH 4 0
BBX 6 2 -1 0
BITMAP
fc
fc
ENDCHAR
STARTCHAR LBrace1
ENCODING 56
SWIDTH 372 0
DWIDTH 7 0
BBX 5 15 1 -3
BITMAP
18
30
60
60
60
60
60
c0
60
60
60
60
60
30
18
ENDCHAR
STARTCHAR LBrace2
ENCODING 57
SWIDTH 384 0
DWIDTH 7 0
BBX 6 23 0 -7
BITMAP
0c
18
30
30
30
30
30
30
30
30
60
c0
60
30
30
30
30
30
30
30
30
18
0c
ENDCHAR
STARTCHAR LBrace3
ENCODING 58
SWIDTH 484 0
DWIDTH 9 0
BBX 7 31 1 -11
BITMAP
06
0c
18
18
30
30
30
30
30
30
30
30
30
60
60
c0
60
60
30
30
30
30
30
30
30
30
30
18
18
0c
06
ENDCHAR
STARTCHAR LBrace4
ENCODING 59
SWIDTH 599 0
DWIDTH 11 0
BBX 8 37 1 -14
BITMAP
03
06
0c
0c
08
18
18
18
18
18
18
18
18
18
18
10
30
60
c0
60
30
10
18
18
18
18
18
18
18
18
18
18
08
0c
0c
06
03
ENDCHAR
STARTCHAR RBrace1
ENCODING 60
SWIDTH 372 0
DWIDTH 7 0
BBX 5 15 1 -3
BITMAP
c0
60
30
30
30
30
30
18
30
30
30
30
30
60
c0
ENDCHAR
STARTCHAR RBrace2
ENCODING 61
SWIDTH 384 0
DWIDTH 7 0
BBX 6 23 1 -7
BITMAP
c0
60
30
30
30
30
30
30
30
30
18
0c
18
30
30
30
30
30
30
30
30
60
c0
ENDCHAR
STARTCHAR RBrace3
ENCODING 62
SWIDTH 484 0
DWIDTH 9 0
BBX 7 31 1 -11
BITMAP
c0
60
30
30
18
18
18
18
18
18
18
18
18
0c
0c
06
0c
0c
18
18
18
18
18
18
18
18
18
30
30
60
c0
ENDCHAR
STARTCHAR RBrace4
ENCODING 63
SWIDTH 599 0
DWIDTH 11 0
BBX 8 37 2 -14
BITMAP
c0
60
30
30
10
18
18
18
18
18
18
18
18
18
18
08
0c
06
03
06
0c
08
18
18
18
18
18
18
18
18
18
18
10
30
30
60
c0
ENDCHAR
STARTCHAR LBracket1
ENCODING 64
SWIDTH 359 0
DWIDTH 6 0
BBX 4 15 1 -3
BITMAP
f0
c0
c0
c0
c0
c0
c0
c0
c0
c0
c0
c0
c0
c0
f0
ENDCHAR
STARTCHAR LBracket2
ENCODING 65
SWIDTH 369 0
DWIDTH 7 0
BBX 4 23 1 -7
BITMAP
f0
c0
c0
c0
c0
c0
c0
c0
c0
c0
c0
c0
c0
c0
c0
c0
c0
c0
c0
c0
c0
c0
f0
ENDCHAR
STARTCHAR LBracket3
ENCODING 66
SWIDTH 379 0
DWIDTH 7 0
BBX 4 31 1 -11
BITMAP
f0
c0
c0
c0
c0
c0
c0
c0
c0
c0
c0
c0
c0
c0
c0
c0
c0
c0
c0
c0
c0
c0
c0
c0
c0
c0
c0
c0
c0
c0
f0
ENDCHAR
STARTCHAR LBracket4
ENCODING 67
SWIDTH 389 0
DWIDTH 7 0
BBX 4 37 1 -14
BITMAP
f0
c0
c0
c0
c0
c0
c0
c0
c0
c0
c0
c0
c0
c0
c0
c0
c0
c0
c0
c0
c0
c0
c0
c0
c0
c0
c0
c0
c0
c0
c0
c0
c0
c0
c0
c0
f0
ENDCHAR
STARTCHAR RBracket1
ENCODING 68
SWIDTH 359 0
DWIDTH 6 0
BBX 4 15 1 -3
BITMAP
f0
30
30
30
30
30
30
30
30
30
30
30
30
30
f0
ENDCHAR
STARTCHAR RBracket2
ENCODING 69
SWIDTH 369 0
DWIDTH 7 0
BBX 4 23 2 -7
BITMAP
f0
30
30
30
30
30
30
30
30
30
30
30
30
30
30
30
30
30
30
30
30
30
f0
ENDCHAR
STARTCHAR RBracket3
ENCODING 70
SWIDTH 379 0
DWIDTH 7 0
BBX 4 31 2 -11
BITMAP
f0
30
30
30
30
30
30
30
30
30
30
30
30
30
30
30
30
30
30
30
30
30
30
30
30
30
30
30
30
30
f0
ENDCHAR
STARTCHAR RBracket4
ENCODING 71
SWIDTH 389 0
DWIDTH 7 0
BBX 4 37 2 -14
BITMAP
f0
30
30
30
30
30
30
30
30
30
30
30
30
30
30
30
30
30
30
30
30
30
30
30
30
30
30
30
30
30
30
30
30
30
30
30
f0
ENDCHAR
STARTCHAR LParen1
ENCODING 72
SWIDTH 349 0
DWIDTH 6 0
BBX 4 15 1 -3
BITMAP
10
20
60
60
c0
c0
c0
c0
c0
c0
c0
60
60
20
10
ENDCHAR
STARTCHAR LParen2
ENCODING 73
SWIDTH 334 0
DWIDTH 6 0
BBX 5 23 1 -7
BITMAP
08
10
30
60
60
c0
c0
c0
c0
c0
c0
c0
c0
c0
c0
c0
c0
c0
60
60
30
10
08
ENDCHAR
STARTCHAR LParen3
ENCODING 74
SWIDTH 353 0
DWIDTH 6 0
BBX 5 31 1 -11
BITMAP
08
10
30
30
60
60
60
c0
c0
c0
c0
c0
c0
c0
c0
c0
c0
c0
c0
c0
c0
c0
c0
c0
60
60
60
30
30
10
08
ENDCHAR
STARTCHAR LParen4
ENCODING 75
SWIDTH 399 0
DWIDTH 7 0
BBX 6 37 1 -14
BITMAP
04
08
18
30
30
60
60
60
60
c0
c0
c0
c0
c0
c0
c0
c0
c0
c0
c0
c0
c0
c0
c0
c0
c0
c0
c0
60
60
60
60
30
30
18
08
04
ENDCHAR
STARTCHAR RParen1
ENCODING 76
SWIDTH 349 0
DWIDTH 6 0
BBX 4 15 1 -3
BITMAP
80
40
60
60
30
30
30
30
30
30
30
60
60
40
80
ENDCHAR
STARTCHAR RParen2
ENCODING 77
SWIDTH 334 0
DWIDTH 6 0
BBX 5 23 0 -7
BITMAP
80
40
60
30
30
18
18
18
18
18
18
18
18
18
18
18
18
18
30
30
60
40
80
ENDCHAR
STARTCHAR RParen3
ENCODING 78
SWIDTH 353 0
DWIDTH 6 0
BBX 5 31 0 -11
BITMAP
80
40
60
60
30
30
30
18
18
18
18
18
18
18
18
18
18
18
18
18
18
18
18
18
30
30
30
60
60
40
80
ENDCHAR
STARTCHAR RParen4
ENCODING 79
SWIDTH 399 0
DWIDTH 7 0
BBX 6 37 0 -14
BITMAP
80
40
60
30
30
18
18
18
18
0c
0c
0c
0c
0c
0c
0c
0c
0c
0c
0c
0c
0c
0c
0c
0c
0c
0c
0c
18
18
18
18
30
30
60
40
80
ENDCHAR
STARTCHAR DblLBracket1
ENCODING 80
SWIDTH 484 0
DWIDTH 9 0
BBX 7 15 1 -3
BITMAP
fe
98
98
98
98
98
98
98
98
98
98
98
98
98
fe
ENDCHAR
STARTCHAR DblLBracket2
ENCODING 81
SWIDTH 494 0
DWIDTH 9 0
BBX 7 23 1 -7
BITMAP
fe
98
98
98
98
98
98
98
98
98
98
98
98
98
98
98
98
98
98
98
98
98
fe
ENDCHAR
STARTCHAR DblLBracket3
ENCODING 82
SWIDTH 504 0
DWIDTH 9 0
BBX 8 31 1 -11
BITMAP
ff
98
98
98
98
98
98
98
98
98
98
98
98
98
98
98
98
98
98
98
98
98
98
98
98
98
98
98
98
98
ff
ENDCHAR
STARTCHAR DblLBracket4
ENCODING 83
SWIDTH 514 0
DWIDTH 9 0
BBX 8 37 1 -14
BITMAP
ff
98
98
98
98
98
98
98
98
98
98
98
98
98
98
98
98
98
98
98
98
98
98
98
98
98
98
98
98
98
98
98
98
98
98
98
ff
ENDCHAR
STARTCHAR DblRBracket1
ENCODING 84
SWIDTH 484 0
DWIDTH 9 0
BBX 7 15 1 -3
BITMAP
fe
32
32
32
32
32
32
32
32
32
32
32
32
32
fe
ENDCHAR
STARTCHAR DblRBracket2
ENCODING 85
SWIDTH 494 0
DWIDTH 9 0
BBX 7 23 1 -7
BITMAP
fe
32
32
32
32
32
32
32
32
32
32
32
32
32
32
32
32
32
32
32
32
32
fe
ENDCHAR
STARTCHAR DblRBracket3
ENCODING 86
SWIDTH 504 0
DWIDTH 9 0
BBX 8 31 0 -11
BITMAP
ff
19
19
19
19
19
19
19
19
19
19
19
19
19
19
19
19
19
19
19
19
19
19
19
19
19
19
19
19
19
ff
ENDCHAR
STARTCHAR DblRBracket4
ENCODING 87
SWIDTH 514 0
DWIDTH 9 0
BBX 8 37 0 -14
BITMAP
ff
19
19
19
19
19
19
19
19
19
19
19
19
19
19
19
19
19
19
19
19
19
19
19
19
19
19
19
19
19
19
19
19
19
19
19
ff
ENDCHAR
STARTCHAR LAngleBracket1
ENCODING 88
SWIDTH 398 0
DWIDTH 7 0
BBX 5 15 1 -3
BITMAP
08
18
10
30
20
60
60
c0
60
60
20
30
10
18
08
ENDCHAR
STARTCHAR LAngleBracket2
ENCODING 89
SWIDTH 375 0
DWIDTH 7 0
BBX 5 23 1 -7
BITMAP
08
18
10
10
30
30
20
60
60
60
c0
c0
c0
60
60
60
20
30
30
10
10
18
08
ENDCHAR
STARTCHAR LAngleBracket3
ENCODING 90
SWIDTH 378 0
DWIDTH 7 0
BBX 5 31 1 -11
BITMAP
08
08
18
10
10
10
30
30
20
20
60
60
60
40
c0
c0
c0
40
60
60
60
20
20
30
30
10
10
10
18
08
08
ENDCHAR
STARTCHAR LAngleBracket4
ENCODING 91
SWIDTH 394 0
DWIDTH 7 0
BBX 5 37 1 -14
BITMAP
08
08
18
18
10
10
10
30
30
30
20
20
60
60
60
60
c0
c0
c0
c0
c0
60
60
60
60
20
20
30
30
30
10
10
10
18
18
08
08
ENDCHAR
STARTCHAR RAngleBracket1
ENCODING 92
SWIDTH 398 0
DWIDTH 7 0
BBX 5 15 1 -3
BITMAP
80
c0
40
60
20
30
30
18
30
30
20
60
40
c0
80
ENDCHAR
STARTCHAR RAngleBracket2
ENCODING 93
SWIDTH 375 0
DWIDTH 7 0
BBX 5 23 1 -7
BITMAP
80
c0
40
40
60
60
20
30
30
30
18
18
18
30
30
30
20
60
60
40
40
c0
80
ENDCHAR
STARTCHAR RAngleBracket3
ENCODING 94
SWIDTH 378 0
DWIDTH 7 0
BBX 5 31 1 -11
BITMAP
80
80
c0
40
40
40
60
60
20
20
30
30
30
10
18
18
18
10
30
30
30
20
20
60
60
40
40
40
c0
80
80
ENDCHAR
STARTCHAR RAngleBracket4
ENCODING 95
SWIDTH 394 0
DWIDTH 7 0
BBX 5 37 1 -14
BITMAP
80
80
c0
c0
40
40
40
60
60
60
20
20
30
30
30
30
18
18
18
18
18
30
30
30
30
20
20
60
60
60
40
40
40
c0
c0
80
80
ENDCHAR
STARTCHAR LCeiling1
ENCODING 96
SWIDTH 411 0
DWIDTH 7 0
BBX 5 15 1 -3
BITMAP
f8
f8
c0
c0
c0
c0
c0
c0
c0
c0
c0
c0
c0
c0
c0
ENDCHAR
STARTCHAR LCeiling2
ENCODING 97
SWIDTH 411 0
DWIDTH 7 0
BBX 5 23 1 -7
BITMAP
f8
f8
c0
c0
c0
c0
c0
c0
c0
c0
c0
c0
c0
c0
c0
c0
c0
c0
c0
c0
c0
c0
c0
ENDCHAR
STARTCHAR LCeiling3
ENCODING 98
SWIDTH 411 0
DWIDTH 7 0
BBX 5 31 1 -11
BITMAP
f8
f8
c0
c0
c0
c0
c0
c0
c0
c0
c0
c0
c0
c0
c0
c0
c0
c0
c0
c0
c0
c0
c0
c0
c0
c0
c0
c0
c0
c0
c0
ENDCHAR
STARTCHAR LCeiling4
ENCODING 99
SWIDTH 411 0
DWIDTH 7 0
BBX 5 38 1 -15
BITMAP
f8
f8
c0
c0
c0
c0
c0
c0
c0
c0
c0
c0
c0
c0
c0
c0
c0
c0
c0
c0
c0
c0
c0
c0
c0
c0
c0
c0
c0
c0
c0
c0
c0
c0
c0
c0
c0
c0
ENDCHAR
STARTCHAR LFloor1
ENCODING 100
SWIDTH 411 0
DWIDTH 7 0
BBX 5 16 1 -3
BITMAP
c0
c0
c0
c0
c0
c0
c0
c0
c0
c0
c0
c0
c0
c0
f8
f8
ENDCHAR
STARTCHAR LFloor2
ENCODING 101
SWIDTH 411 0
DWIDTH 7 0
BBX 5 24 1 -7
BITMAP
c0
c0
c0
c0
c0
c0
c0
c0
c0
c0
c0
c0
c0
c0
c0
c0
c0
c0
c0
c0
c0
c0
f8
f8
ENDCHAR
STARTCHAR LFloor3
ENCODING 102
SWIDTH 411 0
DWIDTH 7 0
BBX 5 31 1 -11
BITMAP
c0
c0
c0
c0
c0
c0
c0
c0
c0
c0
c0
c0
c0
c0
c0
c0
c0
c0
c0
c0
c0
c0
c0
c0
c0
c0
c0
c0
c0
f8
f8
ENDCHAR
STARTCHAR LFloor4
ENCODING 103
SWIDTH 411 0
DWIDTH 7 0
BBX 5 38 1 -14
BITMAP
c0
c0
c0
c0
c0
c0
c0
c0
c0
c0
c0
c0
c0
c0
c0
c0
c0
c0
c0
c0
c0
c0
c0
c0
c0
c0
c0
c0
c0
c0
c0
c0
c0
c0
c0
c0
f8
f8
ENDCHAR
STARTCHAR LFlrClngExtens
ENCODING 104
SWIDTH 411 0
DWIDTH 7 0
BBX 2 7 1 -1
BITMAP
c0
c0
c0
c0
c0
c0
c0
ENDCHAR
STARTCHAR LParenTop
ENCODING 105
SWIDTH 421 0
DWIDTH 8 0
BBX 6 15 1 -1
BITMAP
04
08
10
20
20
60
40
40
c0
c0
c0
c0
c0
c0
c0
ENDCHAR
STARTCHAR LParenExtens
ENCODING 106
SWIDTH 421 0
DWIDTH 8 0
BBX 2 7 1 -1
BITMAP
c0
c0
c0
c0
c0
c0
c0
ENDCHAR
STARTCHAR LParenBottom
ENCODING 107
SWIDTH 421 0
DWIDTH 8 0
BBX 6 15 1 0
BITMAP
c0
c0
c0
c0
c0
c0
c0
40
40
60
20
20
10
08
04
ENDCHAR
STARTCHAR LBraceTop
ENCODING 108
SWIDTH 597 0
DWIDTH 11 0
BBX 6 13 4 -2
BITMAP
04
18
30
20
60
60
40
c0
c0
c0
c0
c0
c0
ENDCHAR
STARTCHAR LBraceMiddle
ENCODING 109
SWIDTH 597 0
DWIDTH 11 0
BBX 5 14 1 -2
BITMAP
18
18
18
18
30
30
60
c0
60
30
10
18
18
18
ENDCHAR
STARTCHAR LBraceBottom
ENCODING 110
SWIDTH 597 0
DWIDTH 11 0
BBX 6 13 4 0
BITMAP
c0
c0
c0
c0
c0
c0
40
60
60
20
30
10
0c
ENDCHAR
STARTCHAR BraceExtens
ENCODING 111
SWIDTH 597 0
DWIDTH 11 0
BBX 2 7 4 -1
BITMAP
c0
c0
c0
c0
c0
c0
c0
ENDCHAR
STARTCHAR RCeiling1
ENCODING 112
SWIDTH 411 0
DWIDTH 7 0
BBX 5 15 1 -3
BITMAP
f8
f8
18
18
18
18
18
18
18
18
18
18
18
18
18
ENDCHAR
STARTCHAR RCeiling2
ENCODING 113
SWIDTH 411 0
DWIDTH 7 0
BBX 5 23 1 -7
BITMAP
f8
f8
18
18
18
18
18
18
18
18
18
18
18
18
18
18
18
18
18
18
18
18
18
ENDCHAR
STARTCHAR RCeiling3
ENCODING 114
SWIDTH 411 0
DWIDTH 7 0
BBX 5 31 1 -11
BITMAP
f8
f8
18
18
18
18
18
18
18
18
18
18
18
18
18
18
18
18
18
18
18
18
18
18
18
18
18
18
18
18
18
ENDCHAR
STARTCHAR RCeiling4
ENCODING 115
SWIDTH 411 0
DWIDTH 7 0
BBX 5 38 1 -15
BITMAP
f8
f8
18
18
18
18
18
18
18
18
18
18
18
18
18
18
18
18
18
18
18
18
18
18
18
18
18
18
18
18
18
18
18
18
18
18
18
18
ENDCHAR
STARTCHAR RFloor1
ENCODING 116
SWIDTH 411 0
DWIDTH 7 0
BBX 5 16 1 -3
BITMAP
18
18
18
18
18
18
18
18
18
18
18
18
18
18
f8
f8
ENDCHAR
STARTCHAR RFloor2
ENCODING 117
SWIDTH 411 0
DWIDTH 7 0
BBX 5 24 1 -7
BITMAP
18
18
18
18
18
18
18
18
18
18
18
18
18
18
18
18
18
18
18
18
18
18
f8
f8
ENDCHAR
STARTCHAR RFloor3
ENCODING 118
SWIDTH 411 0
DWIDTH 7 0
BBX 5 31 1 -11
BITMAP
18
18
18
18
18
18
18
18
18
18
18
18
18
18
18
18
18
18
18
18
18
18
18
18
18
18
18
18
18
f8
f8
ENDCHAR
STARTCHAR RFloor4
ENCODING 119
SWIDTH 411 0
DWIDTH 7 0
BBX 5 38 1 -14
BITMAP
18
18
18
18
18
18
18
18
18
18
18
18
18
18
18
18
18
18
18
18
18
18
18
18
18
18
18
18
18
18
18
18
18
18
18
18
f8
f8
ENDCHAR
STARTCHAR RFlrClngExtens
ENCODING 120
SWIDTH 411 0
DWIDTH 7 0
BBX 2 7 4 -1
BITMAP
c0
c0
c0
c0
c0
c0
c0
ENDCHAR
STARTCHAR RParenTop
ENCODING 121
SWIDTH 421 0
DWIDTH 8 0
BBX 6 15 1 -1
BITMAP
80
40
20
10
10
18
08
08
0c
0c
0c
0c
0c
0c
0c
ENDCHAR
STARTCHAR RParenExtens
ENCODING 122
SWIDTH 421 0
DWIDTH 8 0
BBX 2 7 5 -1
BITMAP
c0
c0
c0
c0
c0
c0
c0
ENDCHAR
STARTCHAR RParenBottom
ENCODING 123
SWIDTH 421 0
DWIDTH 8 0
BBX 6 15 1 0
BITMAP
0c
0c
0c
0c
0c
0c
0c
08
08
18
10
10
20
40
80
ENDCHAR
STARTCHAR RBraceTop
ENCODING 124
SWIDTH 597 0
DWIDTH 11 0
BBX 6 12 0 -1
BITMAP
80
60
10
18
18
08
0c
0c
0c
0c
0c
0c
ENDCHAR
STARTCHAR RBraceMiddle
ENCODING 125
SWIDTH 597 0
DWIDTH 11 0
BBX 5 14 4 -2
BITMAP
c0
c0
c0
c0
60
60
30
18
30
60
40
c0
c0
c0
ENDCHAR
STARTCHAR RBraceBottom
ENCODING 126
SWIDTH 597 0
DWIDTH 11 0
BBX 6 12 0 0
BITMAP
0c
0c
0c
0c
0c
0c
08
18
18
10
20
c0
ENDCHAR
STARTCHAR LBracketTop
ENCODING 128
SWIDTH 389 0
DWIDTH 7 0
BBX 5 4 1 -1
BITMAP
f8
c0
c0
c0
ENDCHAR
STARTCHAR LBracketExtens
ENCODING 129
SWIDTH 389 0
DWIDTH 7 0
BBX 2 7 1 -1
BITMAP
c0
c0
c0
c0
c0
c0
c0
ENDCHAR
STARTCHAR LBracketBottom
ENCODING 130
SWIDTH 389 0
DWIDTH 7 0
BBX 5 3 1 0
BITMAP
c0
c0
f8
ENDCHAR
STARTCHAR RBracketTop
ENCODING 131
SWIDTH 389 0
DWIDTH 7 0
BBX 5 4 1 -1
BITMAP
f8
18
18
18
ENDCHAR
STARTCHAR RBracketExtens
ENCODING 132
SWIDTH 389 0
DWIDTH 7 0
BBX 2 7 4 -1
BITMAP
c0
c0
c0
c0
c0
c0
c0
ENDCHAR
STARTCHAR RBracketBottom
ENCODING 133
SWIDTH 389 0
DWIDTH 7 0
BBX 5 3 1 0
BITMAP
18
18
f8
ENDCHAR
STARTCHAR DblLBracketBottom
ENCODING 134
SWIDTH 514 0
DWIDTH 9 0
BBX 8 3 1 0
BITMAP
98
98
ff
ENDCHAR
STARTCHAR DblLBracketExtens
ENCODING 135
SWIDTH 514 0
DWIDTH 9 0
BBX 5 7 1 -1
BITMAP
98
98
98
98
98
98
98
ENDCHAR
STARTCHAR DblLBracketTop
ENCODING 136
SWIDTH 514 0
DWIDTH 9 0
BBX 8 4 1 -1
BITMAP
ff
98
98
98
ENDCHAR
STARTCHAR DblRBracketBottom
ENCODING 137
SWIDTH 514 0
DWIDTH 9 0
BBX 8 3 0 0
BITMAP
19
19
ff
ENDCHAR
STARTCHAR DblRBracketExtens
ENCODING 138
SWIDTH 514 0
DWIDTH 9 0
BBX 5 7 3 -1
BITMAP
c8
c8
c8
c8
c8
c8
c8
ENDCHAR
STARTCHAR DblRBracketTop
ENCODING 139
SWIDTH 514 0
DWIDTH 9 0
BBX 8 4 0 -1
BITMAP
ff
19
19
19
ENDCHAR
STARTCHAR LeftHook
ENCODING 140
SWIDTH 230 0
DWIDTH 4 0
BBX 4 15 0 0
BITMAP
f0
f0
c0
c0
c0
c0
c0
c0
c0
c0
c0
c0
c0
c0
c0
ENDCHAR
STARTCHAR HookExt
ENCODING 141
SWIDTH 200 0
DWIDTH 4 0
BBX 4 2 0 13
BITMAP
f0
f0
ENDCHAR
STARTCHAR RightHook
ENCODING 142
SWIDTH 230 0
DWIDTH 4 0
BBX 4 15 0 0
BITMAP
f0
f0
30
30
30
30
30
30
30
30
30
30
30
30
30
ENDCHAR
STARTCHAR Radical1
ENCODING 143
SWIDTH 855 0
DWIDTH 15 0
BBX 15 19 1 -14
BITMAP
001e
001e
0018
0010
0030
0030
0030
1060
7860
b860
1c60
1cc0
0ec0
0fc0
07c0
0380
0380
0180
0180
ENDCHAR
STARTCHAR Slash1
ENCODING 144
SWIDTH 358 0
DWIDTH 6 0
BBX 7 15 0 -3
BITMAP
06
0e
0c
0c
1c
18
18
38
30
30
70
60
60
e0
c0
ENDCHAR
STARTCHAR Slash2
ENCODING 145
SWIDTH 493 0
DWIDTH 9 0
BBX 9 23 0 -7
BITMAP
0180
0180
0300
0300
0300
0600
0600
0600
0e00
0c00
0c00
1c00
1800
1800
1800
3000
3000
3000
6000
6000
6000
e000
c000
ENDCHAR
STARTCHAR Slash3
ENCODING 146
SWIDTH 632 0
DWIDTH 11 0
BBX 12 31 0 -11
BITMAP
0030
0030
0060
0060
0060
00c0
00c0
00c0
0180
0180
0180
0300
0300
0300
0600
0600
0600
0c00
0c00
0c00
1800
1800
1800
3800
3000
3000
7000
6000
6000
e000
c000
ENDCHAR
STARTCHAR Slash4
ENCODING 147
SWIDTH 757 0
DWIDTH 14 0
BBX 14 37 0 -14
BITMAP
000c
000c
0018
0018
0018
0030
0030
0030
0060
0060
0060
00c0
00c0
00c0
0180
0180
0180
0300
0300
0300
0600
0600
0600
0c00
0c00
0c00
1c00
1800
1800
3800
3000
3000
7000
6000
6000
e000
c000
ENDCHAR
STARTCHAR BackSlash1
ENCODING 148
SWIDTH 358 0
DWIDTH 6 0
BBX 7 15 0 -3
BITMAP
c0
e0
60
60
70
30
30
38
18
18
1c
0c
0c
0e
06
ENDCHAR
STARTCHAR BackSlash2
ENCODING 149
SWIDTH 493 0
DWIDTH 9 0
BBX 9 23 0 -7
BITMAP
c000
e000
6000
6000
6000
3000
3000
3000
1800
1800
1800
1c00
0c00
0c00
0e00
0600
0600
0600
0300
0300
0300
0180
0180
ENDCHAR
STARTCHAR BackSlash3
ENCODING 150
SWIDTH 632 0
DWIDTH 11 0
BBX 12 31 0 -11
BITMAP
c000
e000
6000
6000
7000
3000
3000
3800
1800
1800
1800
0c00
0c00
0c00
0600
0600
0600
0300
0300
0300
0180
0180
0180
00c0
00c0
00c0
0060
0060
0060
0030
0030
ENDCHAR
STARTCHAR BackSlash4
ENCODING 151
SWIDTH 757 0
DWIDTH 14 0
BBX 14 37 0 -14
BITMAP
c000
e000
6000
6000
7000
3000
3000
3800
1800
1800
1c00
0c00
0c00
0c00
0600
0600
0600
0300
0300
0300
0180
0180
0180
00c0
00c0
00c0
0060
0060
0060
0030
0030
0030
0018
0018
0018
000c
000c
ENDCHAR
STARTCHAR ContourIntegral
ENCODING 152
SWIDTH 430 0
DWIDTH 8 0
BBX 11 23 1 -4
BITMAP
01c0
0360
0660
0600
0400
0c00
0c00
0c00
1e00
2d00
4c80
4c80
4c80
4c80
2d00
1e00
0c00
0c00
0c00
0800
c800
d800
7000
ENDCHAR
STARTCHAR DblContInteg
ENCODING 153
SWIDTH 779 0
DWIDTH 14 0
BBX 17 23 1 -4
BITMAP
01c700
036d80
067980
061800
041000
0c3000
0c3000
0c3000
1ff800
2c3400
4c3200
4c3200
4c3200
4c3200
2c3400
1ff800
0c3000
0c3000
0c3000
082000
cb2000
db6000
71c000
ENDCHAR
STARTCHAR CntrClckwContInteg
ENCODING 154
SWIDTH 430 0
DWIDTH 8 0
BBX 11 23 1 -4
BITMAP
01c0
0360
0660
0600
0400
0c00
0c00
0c00
1e00
2d00
4c80
4dc0
4ea0
4c80
2d00
1e00
0c00
0c00
0c00
0800
c800
d800
7000
ENDCHAR
STARTCHAR ClckwContInteg
ENCODING 155
SWIDTH 430 0
DWIDTH 8 0
BBX 12 23 0 -4
BITMAP
00e0
01b0
0330
0300
0200
0600
0600
0600
0f00
1680
2640
7640
ae40
2640
1680
0f00
0600
0600
0600
0400
6400
6c00
3800
ENDCHAR
STARTCHAR SquareContInteg
ENCODING 156
SWIDTH 430 0
DWIDTH 8 0
BBX 11 23 1 -4
BITMAP
01c0
0360
0660
0600
0400
0c00
0c00
0c00
7f80
4c80
4c80
4c80
4c80
4c80
4c80
7f80
0c00
0c00
0c00
0800
c800
d800
7000
ENDCHAR
STARTCHAR UnionPlus
ENCODING 157
SWIDTH 893 0
DWIDTH 16 0
BBX 14 16 1 -3
BITMAP
c00c
c00c
c00c
c00c
c00c
c30c
c30c
c30c
dfec
dfec
c30c
e31c
6318
7878
3fe0
0fc0
ENDCHAR
STARTCHAR SquareIntersection
ENCODING 158
SWIDTH 893 0
DWIDTH 16 0
BBX 14 16 1 -3
BITMAP
fffc
fffc
c00c
c00c
c00c
c00c
c00c
c00c
c00c
c00c
c00c
c00c
c00c
c00c
c00c
c00c
ENDCHAR
STARTCHAR SquareUnion
ENCODING 159
SWIDTH 893 0
DWIDTH 16 0
BBX 14 16 1 -3
BITMAP
c00c
c00c
c00c
c00c
c00c
c00c
c00c
c00c
c00c
c00c
c00c
c00c
c00c
c00c
fffc
fffc
ENDCHAR
STARTCHAR LBracketBar1
ENCODING 160
SWIDTH 272 0
DWIDTH 5 0
BBX 2 15 2 -3
BITMAP
c0
c0
c0
c0
c0
c0
c0
c0
c0
c0
c0
c0
c0
c0
c0
ENDCHAR
STARTCHAR LBracketBar2
ENCODING 161
SWIDTH 272 0
DWIDTH 5 0
BBX 2 23 2 -7
BITMAP
c0
c0
c0
c0
c0
c0
c0
c0
c0
c0
c0
c0
c0
c0
c0
c0
c0
c0
c0
c0
c0
c0
c0
ENDCHAR
STARTCHAR LBracketBar3
ENCODING 162
SWIDTH 272 0
DWIDTH 5 0
BBX 2 31 2 -11
BITMAP
c0
c0
c0
c0
c0
c0
c0
c0
c0
c0
c0
c0
c0
c0
c0
c0
c0
c0
c0
c0
c0
c0
c0
c0
c0
c0
c0
c0
c0
c0
c0
ENDCHAR
STARTCHAR LBracketBar4
ENCODING 163
SWIDTH 272 0
DWIDTH 5 0
BBX 2 37 2 -14
BITMAP
c0
c0
c0
c0
c0
c0
c0
c0
c0
c0
c0
c0
c0
c0
c0
c0
c0
c0
c0
c0
c0
c0
c0
c0
c0
c0
c0
c0
c0
c0
c0
c0
c0
c0
c0
c0
c0
ENDCHAR
STARTCHAR RBracketBar1
ENCODING 164
SWIDTH 272 0
DWIDTH 5 0
BBX 2 15 2 -3
BITMAP
c0
c0
c0
c0
c0
c0
c0
c0
c0
c0
c0
c0
c0
c0
c0
ENDCHAR
STARTCHAR RBracketBar2
ENCODING 165
SWIDTH 272 0
DWIDTH 5 0
BBX 2 23 2 -7
BITMAP
c0
c0
c0
c0
c0
c0
c0
c0
c0
c0
c0
c0
c0
c0
c0
c0
c0
c0
c0
c0
c0
c0
c0
ENDCHAR
STARTCHAR RBracketBar3
ENCODING 166
SWIDTH 272 0
DWIDTH 5 0
BBX 2 31 2 -11
BITMAP
c0
c0
c0
c0
c0
c0
c0
c0
c0
c0
c0
c0
c0
c0
c0
c0
c0
c0
c0
c0
c0
c0
c0
c0
c0
c0
c0
c0
c0
c0
c0
ENDCHAR
STARTCHAR RBracketBar4
ENCODING 167
SWIDTH 272 0
DWIDTH 5 0
BBX 2 37 2 -14
BITMAP
c0
c0
c0
c0
c0
c0
c0
c0
c0
c0
c0
c0
c0
c0
c0
c0
c0
c0
c0
c0
c0
c0
c0
c0
c0
c0
c0
c0
c0
c0
c0
c0
c0
c0
c0
c0
c0
ENDCHAR
STARTCHAR ContourIntegral2
ENCODING 168
SWIDTH 681 0
DWIDTH 12 0
BBX 19 40 1 -12
BITMAP
000780
000ce0
0018e0
003860
003000
007000
007000
007000
006000
00e000
00e000
00e000
00e000
03f000
07fc00
0eee00
18e700
18e300
30e180
30e180
30e180
30e180
30e180
18e300
1ce300
0eee00
07fc00
01f800
00e000
00e000
00e000
00e000
00c000
00c000
01c000
01c000
c18000
e38000
e70000
3c0000
ENDCHAR
STARTCHAR DblContInteg2
ENCODING 169
SWIDTH 1291 0
DWIDTH 23 0
BBX 30 40 1 -12
BITMAP
000780f0
000ce19c
0018e31c
0038670c
00300600
00700e00
00700e00
00700e00
00600c00
00e01c00
00e01c00
00e01c00
00e01c00
03fffe00
07ffff80
0ee01dc0
1ce01ce0
18e01c60
30e01c30
30e01c30
30e01c30
30e01c30
30e01c30
18e01c60
1ce01c60
0ee01dc0
07ffff80
01ffff00
00e01c00
00e01c00
00e01c00
00c01c00
00c01800
00c01800
01c03800
01c03800
c1983000
e39c7000
e71ce000
3c078000
ENDCHAR
STARTCHAR CntrClckwContInteg2
ENCODING 170
SWIDTH 681 0
DWIDTH 12 0
BBX 20 40 1 -12
BITMAP
000780
000ce0
0018e0
003860
003000
007000
007000
007000
006000
00e000
00e000
00e000
00e000
03f000
07fc00
0eee00
18e700
18e300
30e180
30e180
30e3c0
30e5a0
30e990
18e380
1ce300
0eee00
07fc00
01f800
00e000
00e000
00e000
00e000
00c000
00c000
01c000
01c000
c18000
e38000
e70000
3c0000
ENDCHAR
STARTCHAR ClckwContInteg2
ENCODING 171
SWIDTH 681 0
DWIDTH 12 0
BBX 20 40 0 -12
BITMAP
0003c0
000670
000c70
001c30
001800
003800
003800
003800
003000
007000
007000
007000
007000
01f800
03fe00
077700
0e7380
0c7180
1870c0
1870c0
3c70c0
5a70c0
9970c0
0c7180
0e7180
077700
03fe00
00fc00
007000
007000
007000
007000
006000
006000
00e000
00e000
60c000
71c000
738000
1e0000
ENDCHAR
STARTCHAR SquareContInteg2
ENCODING 172
SWIDTH 681 0
DWIDTH 12 0
BBX 19 40 1 -12
BITMAP
000780
000ce0
0018e0
003860
003000
007000
007000
007000
006000
006000
00e000
00e000
00e000
00e000
1fff00
1fff00
18e300
18e300
18e300
18e300
18e300
18e300
18e300
18e300
18e300
18e300
1fff00
1fff00
00e000
00e000
00e000
00e000
00c000
00c000
01c000
01c000
c18000
e38000
e70000
3c0000
ENDCHAR
STARTCHAR UnionPlus2
ENCODING 173
SWIDTH 1295 0
DWIDTH 23 0
BBX 21 28 1 -8
BITMAP
c00018
c00018
c00018
c00018
c00018
c00018
c00018
c00018
c00018
c00018
c00018
c00018
c03018
c03018
c03018
c03018
c7ff98
c7ff98
c03018
c03018
e03018
603030
700030
300060
1800c0
0e0380
07ff00
01fc00
ENDCHAR
STARTCHAR SquareIntersection2
ENCODING 174
SWIDTH 1295 0
DWIDTH 23 0
BBX 21 28 1 -8
BITMAP
fffff8
fffff8
c00018
c00018
c00018
c00018
c00018
c00018
c00018
c00018
c00018
c00018
c00018
c00018
c00018
c00018
c00018
c00018
c00018
c00018
c00018
c00018
c00018
c00018
c00018
c00018
c00018
c00018
ENDCHAR
STARTCHAR SquareUnion2
ENCODING 175
SWIDTH 1295 0
DWIDTH 23 0
BBX 21 28 1 -8
BITMAP
c00018
c00018
c00018
c00018
c00018
c00018
c00018
c00018
c00018
c00018
c00018
c00018
c00018
c00018
c00018
c00018
c00018
c00018
c00018
c00018
c00018
c00018
c00018
c00018
c00018
c00018
fffff8
fffff8
ENDCHAR
STARTCHAR DblLBracketBar1
ENCODING 176
SWIDTH 516 0
DWIDTH 9 0
BBX 5 15 2 -3
BITMAP
d8
d8
d8
d8
d8
d8
d8
d8
d8
d8
d8
d8
d8
d8
d8
ENDCHAR
STARTCHAR DblLBracketBar2
ENCODING 177
SWIDTH 516 0
DWIDTH 9 0
BBX 5 23 2 -7
BITMAP
d8
d8
d8
d8
d8
d8
d8
d8
d8
d8
d8
d8
d8
d8
d8
d8
d8
d8
d8
d8
d8
d8
d8
ENDCHAR
STARTCHAR DblLBracketBar3
ENCODING 178
SWIDTH 516 0
DWIDTH 9 0
BBX 5 31 2 -11
BITMAP
d8
d8
d8
d8
d8
d8
d8
d8
d8
d8
d8
d8
d8
d8
d8
d8
d8
d8
d8
d8
d8
d8
d8
d8
d8
d8
d8
d8
d8
d8
d8
ENDCHAR
STARTCHAR DblLBracketBar4
ENCODING 179
SWIDTH 516 0
DWIDTH 9 0
BBX 5 37 2 -14
BITMAP
d8
d8
d8
d8
d8
d8
d8
d8
d8
d8
d8
d8
d8
d8
d8
d8
d8
d8
d8
d8
d8
d8
d8
d8
d8
d8
d8
d8
d8
d8
d8
d8
d8
d8
d8
d8
d8
ENDCHAR
STARTCHAR DblRBracketBar1
ENCODING 180
SWIDTH 516 0
DWIDTH 9 0
BBX 5 15 2 -3
BITMAP
d8
d8
d8
d8
d8
d8
d8
d8
d8
d8
d8
d8
d8
d8
d8
ENDCHAR
STARTCHAR DblRBracketBar2
ENCODING 181
SWIDTH 516 0
DWIDTH 9 0
BBX 5 23 2 -7
BITMAP
d8
d8
d8
d8
d8
d8
d8
d8
d8
d8
d8
d8
d8
d8
d8
d8
d8
d8
d8
d8
d8
d8
d8
ENDCHAR
STARTCHAR DblRBracketBar3
ENCODING 182
SWIDTH 516 0
DWIDTH 9 0
BBX 5 31 2 -11
BITMAP
d8
d8
d8
d8
d8
d8
d8
d8
d8
d8
d8
d8
d8
d8
d8
d8
d8
d8
d8
d8
d8
d8
d8
d8
d8
d8
d8
d8
d8
d8
d8
ENDCHAR
STARTCHAR DblRBracketBar4
ENCODING 183
SWIDTH 516 0
DWIDTH 9 0
BBX 5 37 2 -14
BITMAP
d8
d8
d8
d8
d8
d8
d8
d8
d8
d8
d8
d8
d8
d8
d8
d8
d8
d8
d8
d8
d8
d8
d8
d8
d8
d8
d8
d8
d8
d8
d8
d8
d8
d8
d8
d8
d8
ENDCHAR
STARTCHAR ContourIntegral3
ENCODING 184
SWIDTH 968 0
DWIDTH 17 0
BBX 26 59 2 -21
BITMAP
00001f00
00006380
0000c3c0
000183c0
000381c0
00030000
00070000
00070000
00060000
00060000
000e0000
000e0000
000e0000
000e0000
000c0000
001c0000
001c0000
001c0000
001c0000
001c0000
007f0000
01ffc000
039de000
071c7000
0c1c3800
1c1c1c00
181c0c00
181c0c00
301c0600
301c0600
301c0600
301c0600
301c0600
301c0600
181c0c00
181c0c00
1c1c1c00
0e1c3800
071c7000
039ce000
01ffc000
007f0000
001c0000
001c0000
001c0000
001c0000
00180000
00180000
00180000
00380000
00380000
00380000
00300000
00300000
e0600000
f0600000
f0c00000
71800000
3f000000
ENDCHAR
STARTCHAR DblContInteg3
ENCODING 185
SWIDTH 1887 0
DWIDTH 34 0
BBX 43 59 2 -21
BITMAP
00001f000f80
0000638031c0
0000c3c061e0
000183c0c1e0
000381c1c0e0
000300018000
000700038000
000700038000
000600030000
000600030000
000e00070000
000e00070000
000e00070000
000e00070000
000c00060000
001c000e0000
001c000e0000
001c000e0000
001c000e0000
001c000e0000
007fffff0000
01ffffffc000
039c000ef000
071c000e3800
0c1c000e1c00
1c1c000e0c00
181c000e0600
181c000e0600
301c000e0300
301c000e0300
301c000e0300
301c000e0300
301c000e0300
301c000e0300
181c000e0600
181c000e0600
1c1c000e0e00
0e1c000e1c00
071c000e3800
03dc000e7000
01ffffffe000
003fffff8000
001c000e0000
001c000e0000
001c000e0000
001c000e0000
0018000c0000
0018000c0000
0018000c0000
0038001c0000
0038001c0000
0038001c0000
003000180000
003000180000
e06070300000
f06078300000
f0c078600000
718038c00000
3f001f800000
ENDCHAR
STARTCHAR CntrClckwContInteg3
ENCODING 186
SWIDTH 968 0
DWIDTH 17 0
BBX 27 59 2 -21
BITMAP
00001f00
00006380
0000c3c0
000183c0
000381c0
00030000
00070000
00070000
00060000
00060000
000e0000
000e0000
000e0000
000e0000
000c0000
001c0000
001c0000
001c0000
001c0000
001c0000
007f0000
01ffc000
039de000
071c7000
0c1c3800
1c1c1800
181c0c00
181c0c00
301c0600
301c0600
301c0600
301c0f00
301c1e80
301c2640
181c4620
181c0c00
1c1c0c00
0e1c1800
071c3800
039cf000
01ffc000
007f0000
001c0000
001c0000
001c0000
001c0000
00180000
00180000
00180000
00380000
00380000
00380000
00300000
00300000
e0600000
f0600000
f0c00000
71800000
3f000000
ENDCHAR
STARTCHAR ClckwContInteg3
ENCODING 187
SWIDTH 968 0
DWIDTH 17 0
BBX 28 59 0 -21
BITMAP
000007c0
000018e0
000030f0
000060f0
0000e070
0000c000
0001c000
0001c000
00018000
00018000
00038000
00038000
00038000
00030000
00030000
00070000
00070000
00070000
00070000
00070000
001fc000
007ff000
00e77800
01871c00
03070e00
07070700
06070300
06070300
0c070180
0c070180
1e070180
2d070180
4c870180
8c470180
06070300
06070300
03070700
03870e00
01c71c00
00f73800
007ff000
001fc000
00070000
00070000
00070000
00070000
00060000
00060000
00060000
000e0000
000e0000
000e0000
000c0000
000c0000
38180000
3c180000
3c300000
1c600000
0fc00000
ENDCHAR
STARTCHAR SquareContInteg3
ENCODING 188
SWIDTH 968 0
DWIDTH 17 0
BBX 26 59 2 -21
BITMAP
00001f00
00006380
0000c3c0
000183c0
000381c0
00030000
00030000
00070000
00060000
00060000
000e0000
000e0000
000e0000
000e0000
000c0000
001c0000
001c0000
001c0000
001c0000
001c0000
001c0000
1ffffc00
1ffffc00
181c0c00
181c0c00
181c0c00
181c0c00
181c0c00
181c0c00
181c0c00
181c0c00
181c0c00
181c0c00
181c0c00
181c0c00
181c0c00
181c0c00
181c0c00
181c0c00
1ffffc00
1ffffc00
001c0000
001c0000
001c0000
001c0000
00180000
00180000
00180000
00180000
00380000
00380000
00300000
00300000
00300000
e0600000
f0600000
f0c00000
71800000
3f000000
ENDCHAR
STARTCHAR UnionPlus3
ENCODING 189
SWIDTH 1988 0
DWIDTH 36 0
BBX 33 41 2 -14
BITMAP
c000000180
c000000180
c000000180
c000000180
c000000180
c000000180
c000000180
c000000180
c000000180
c000000180
c000000180
c000000180
c000000180
c000000180
c000000180
c000000180
c001800180
c001800180
c001800180
c001800180
c001800180
c001800180
c001800180
c001800180
c001800180
c3ffffc180
c3ffffc180
c001800180
c001800180
6001800300
6001800300
7001800700
3001800600
1801800c00
1c01801c00
0e00003800
0700007000
03c001e000
00f00f8000
003fff0000
000ff80000
ENDCHAR
STARTCHAR SquareIntersection3
ENCODING 190
SWIDTH 2064 0
DWIDTH 37 0
BBX 33 41 2 -14
BITMAP
ffffffff80
ffffffff80
c000000180
c000000180
c000000180
c000000180
c000000180
c000000180
c000000180
c000000180
c000000180
c000000180
c000000180
c000000180
c000000180
c000000180
c000000180
c000000180
c000000180
c000000180
c000000180
c000000180
c000000180
c000000180
c000000180
c000000180
c000000180
c000000180
c000000180
c000000180
c000000180
c000000180
c000000180
c000000180
c000000180
c000000180
c000000180
c000000180
c000000180
c000000180
c000000180
ENDCHAR
STARTCHAR SquareUnion3
ENCODING 191
SWIDTH 2064 0
DWIDTH 37 0
BBX 33 41 2 -14
BITMAP
c000000180
c000000180
c000000180
c000000180
c000000180
c000000180
c000000180
c000000180
c000000180
c000000180
c000000180
c000000180
c000000180
c000000180
c000000180
c000000180
c000000180
c000000180
c000000180
c000000180
c000000180
c000000180
c000000180
c000000180
c000000180
c000000180
c000000180
c000000180
c000000180
c000000180
c000000180
c000000180
c000000180
c000000180
c000000180
c000000180
c000000180
c000000180
c000000180
ffffffff80
ffffffff80
ENDCHAR
STARTCHAR DblBar1
ENCODING 192
SWIDTH 516 0
DWIDTH 9 0
BBX 5 15 2 -3
BITMAP
d8
d8
d8
d8
d8
d8
d8
d8
d8
d8
d8
d8
d8
d8
d8
ENDCHAR
STARTCHAR DblBar2
ENCODING 193
SWIDTH 516 0
DWIDTH 9 0
BBX 5 23 2 -7
BITMAP
d8
d8
d8
d8
d8
d8
d8
d8
d8
d8
d8
d8
d8
d8
d8
d8
d8
d8
d8
d8
d8
d8
d8
ENDCHAR
STARTCHAR DblBar3
ENCODING 194
SWIDTH 516 0
DWIDTH 9 0
BBX 5 31 2 -11
BITMAP
d8
d8
d8
d8
d8
d8
d8
d8
d8
d8
d8
d8
d8
d8
d8
d8
d8
d8
d8
d8
d8
d8
d8
d8
d8
d8
d8
d8
d8
d8
d8
ENDCHAR
STARTCHAR DblBar4
ENCODING 195
SWIDTH 516 0
DWIDTH 9 0
BBX 5 37 2 -14
BITMAP
d8
d8
d8
d8
d8
d8
d8
d8
d8
d8
d8
d8
d8
d8
d8
d8
d8
d8
d8
d8
d8
d8
d8
d8
d8
d8
d8
d8
d8
d8
d8
d8
d8
d8
d8
d8
d8
ENDCHAR
STARTCHAR BarExt
ENCODING 196
SWIDTH 272 0
DWIDTH 5 0
BBX 2 7 2 -1
BITMAP
c0
c0
c0
c0
c0
c0
c0
ENDCHAR
STARTCHAR DblBarExt
ENCODING 197
SWIDTH 516 0
DWIDTH 9 0
BBX 5 7 2 -1
BITMAP
d8
d8
d8
d8
d8
d8
d8
ENDCHAR
STARTCHAR OverCircle
ENCODING 198
SWIDTH 267 0
DWIDTH 5 0
BBX 5 5 0 0
BITMAP
70
88
88
88
70
ENDCHAR
STARTCHAR Hacek
ENCODING 199
SWIDTH 371 0
DWIDTH 7 0
BBX 7 4 0 1
BITMAP
c6
6c
38
38
ENDCHAR
STARTCHAR VertBar1
ENCODING 200
SWIDTH 272 0
DWIDTH 5 0
BBX 2 15 2 -3
BITMAP
c0
c0
c0
c0
c0
c0
c0
c0
c0
c0
c0
c0
c0
c0
c0
ENDCHAR
STARTCHAR VertBar2
ENCODING 201
SWIDTH 272 0
DWIDTH 5 0
BBX 2 23 2 -7
BITMAP
c0
c0
c0
c0
c0
c0
c0
c0
c0
c0
c0
c0
c0
c0
c0
c0
c0
c0
c0
c0
c0
c0
c0
ENDCHAR
STARTCHAR Nbspace
ENCODING 202
SWIDTH 189 0
DWIDTH 3 0
BBX 0 0 0 0
BITMAP
ENDCHAR
STARTCHAR VertBar3
ENCODING 203
SWIDTH 272 0
DWIDTH 5 0
BBX 2 31 2 -11
BITMAP
c0
c0
c0
c0
c0
c0
c0
c0
c0
c0
c0
c0
c0
c0
c0
c0
c0
c0
c0
c0
c0
c0
c0
c0
c0
c0
c0
c0
c0
c0
c0
ENDCHAR
STARTCHAR VertBar4
ENCODING 204
SWIDTH 272 0
DWIDTH 5 0
BBX 2 37 2 -14
BITMAP
c0
c0
c0
c0
c0
c0
c0
c0
c0
c0
c0
c0
c0
c0
c0
c0
c0
c0
c0
c0
c0
c0
c0
c0
c0
c0
c0
c0
c0
c0
c0
c0
c0
c0
c0
c0
c0
ENDCHAR
STARTCHAR FIntegral
ENCODING 205
SWIDTH 430 0
DWIDTH 8 0
BBX 11 23 1 -4
BITMAP
01c0
0360
0660
0600
0400
0c00
0c00
0c00
0c00
0d80
1e00
6c00
0c00
0c00
0c00
0c00
0c00
0c00
0c00
0c00
c800
d800
7000
ENDCHAR
STARTCHAR FIntegral2
ENCODING 206
SWIDTH 681 0
DWIDTH 12 0
BBX 19 40 1 -12
BITMAP
000780
000ce0
0018e0
003860
003000
003000
007000
007000
007000
006000
00e000
00e000
00e000
00e000
00e300
00ff00
01fc00
0fe000
1fe000
18e000
00e000
00e000
00e000
00e000
00e000
00e000
00e000
00e000
00e000
00e000
00e000
00e000
00c000
00c000
01c000
01c000
c18000
e38000
e70000
3c0000
ENDCHAR
STARTCHAR FIntegral3
ENCODING 207
SWIDTH 968 0
DWIDTH 17 0
BBX 26 59 2 -21
BITMAP
00001f00
00006380
0000c3c0
000183c0
000181c0
00030000
00030000
00070000
00060000
00060000
000e0000
000e0000
000e0000
000e0000
000c0000
000c0000
000c0000
001c0000
001c0000
001c0000
001c1800
001cfc00
001ff000
001f8000
00fc0000
07fc0000
0f9c0000
041c0000
001c0000
001c0000
001c0000
001c0000
001c0000
001c0000
001c0000
001c0000
001c0000
001c0000
001c0000
001c0000
001c0000
001c0000
001c0000
001c0000
001c0000
001c0000
001c0000
00180000
00180000
00380000
00380000
00380000
00300000
00300000
c0600000
f0600000
f0c00000
71800000
3f000000
ENDCHAR
STARTCHAR OverDoubleDot
ENCODING 208
SWIDTH 360 0
DWIDTH 6 0
BBX 7 3 0 1
BITMAP
ee
ee
ee
ENDCHAR
STARTCHAR OverTripleDot
ENCODING 209
SWIDTH 579 0
DWIDTH 10 0
BBX 11 3 0 1
BITMAP
eee0
eee0
eee0
ENDCHAR
STARTCHAR OverLVector
ENCODING 210
SWIDTH 467 0
DWIDTH 8 0
BBX 8 4 0 0
BITMAP
10
30
7f
ff
ENDCHAR
STARTCHAR OverRVector
ENCODING 211
SWIDTH 467 0
DWIDTH 8 0
BBX 8 4 0 0
BITMAP
08
0c
fe
ff
ENDCHAR
STARTCHAR OverLRVector
ENCODING 212
SWIDTH 650 0
DWIDTH 12 0
BBX 12 4 0 0
BITMAP
1080
30c0
7fe0
fff0
ENDCHAR
STARTCHAR OverLArrow
ENCODING 213
SWIDTH 428 0
DWIDTH 8 0
BBX 8 6 0 -2
BITMAP
20
60
ff
ff
60
20
ENDCHAR
STARTCHAR OverArrowVectExt
ENCODING 214
SWIDTH 200 0
DWIDTH 4 0
BBX 4 2 0 0
BITMAP
f0
f0
ENDCHAR
STARTCHAR OverRArrow
ENCODING 215
SWIDTH 428 0
DWIDTH 8 0
BBX 8 6 0 -2
BITMAP
04
06
ff
ff
06
04
ENDCHAR
STARTCHAR OverLRArrow
ENCODING 216
SWIDTH 572 0
DWIDTH 10 0
BBX 10 6 0 -2
BITMAP
2100
6180
ffc0
ffc0
6180
2100
ENDCHAR
STARTCHAR Integral
ENCODING 217
SWIDTH 430 0
DWIDTH 8 0
BBX 11 23 1 -4
BITMAP
01c0
0260
0660
0600
0400
0c00
0c00
0c00
0c00
0c00
0c00
0c00
0c00
0c00
0c00
0c00
0c00
0c00
0c00
0c00
c800
d800
7000
ENDCHAR
STARTCHAR Summation
ENCODING 218
SWIDTH 842 0
DWIDTH 15 0
BBX 13 16 1 -3
BITMAP
7ff0
3830
1810
1c10
0e00
0600
0300
0380
0100
0200
0600
0c08
1808
3018
7ff8
fff8
ENDCHAR
STARTCHAR Product
ENCODING 219
SWIDTH 951 0
DWIDTH 17 0
BBX 14 16 2 -3
BITMAP
fffc
6018
6018
6018
6018
6018
6018
6018
6018
6018
6018
6018
6018
6018
6018
f03c
ENDCHAR
STARTCHAR Intersection
ENCODING 220
SWIDTH 893 0
DWIDTH 16 0
BBX 14 16 1 -3
BITMAP
c00c
c00c
c00c
c00c
c00c
c00c
c00c
c00c
c00c
c00c
c00c
e01c
6018
7878
3fe0
0fc0
ENDCHAR
STARTCHAR Union
ENCODING 221
SWIDTH 893 0
DWIDTH 16 0
BBX 14 16 1 -3
BITMAP
0fc0
3fe0
7878
6018
e01c
c00c
c00c
c00c
c00c
c00c
c00c
c00c
c00c
c00c
c00c
c00c
ENDCHAR
STARTCHAR LogicalOr
ENCODING 222
SWIDTH 669 0
DWIDTH 12 0
BBX 11 12 1 0
BITMAP
c060
4040
60c0
60c0
3180
3180
1100
1b00
0a00
0e00
0e00
0400
ENDCHAR
STARTCHAR LogicalAnd
ENCODING 223
SWIDTH 669 0
DWIDTH 12 0
BBX 11 12 1 0
BITMAP
0400
0e00
0e00
0a00
1b00
1100
3180
3180
60c0
60c0
4040
c060
ENDCHAR
STARTCHAR Integral1
ENCODING 224
SWIDTH 681 0
DWIDTH 12 0
BBX 18 40 1 -12
BITMAP
000f00
0019c0
0031c0
0070c0
006000
00e000
00e000
00e000
00e000
00e000
00e000
00e000
00e000
00e000
00e000
00e000
00e000
00e000
00e000
00e000
00e000
00e000
00e000
00e000
00e000
00e000
00e000
00e000
00e000
00e000
00e000
00e000
00e000
00c000
01c000
01c000
c18000
e38000
e70000
3c0000
ENDCHAR
STARTCHAR Integral2
ENCODING 225
SWIDTH 968 0
DWIDTH 17 0
BBX 23 59 2 -21
BITMAP
0000f8
00019c
00031e
00061e
00060e
000c00
000c00
000c00
001c00
001c00
001c00
001c00
001c00
001c00
001c00
001c00
001c00
001c00
001c00
001c00
001c00
001c00
001c00
001c00
001c00
001c00
001c00
001c00
001c00
001c00
001c00
001c00
001c00
001c00
001c00
001c00
001c00
001c00
001c00
001c00
001c00
001c00
001c00
001c00
001c00
001c00
001c00
001c00
001c00
001800
001800
001800
003000
003000
e06000
f06000
f0c000
718000
3f0000
ENDCHAR
STARTCHAR Sum1
ENCODING 226
SWIDTH 1351 0
DWIDTH 24 0
BBX 22 28 1 -8
BITMAP
7ffff8
3c0038
1c0018
1e0018
0f0008
070008
078000
03c000
01c000
01e000
00f000
007000
007800
003c00
001800
003000
007000
00e000
01c000
018000
030004
070004
0e000c
0c000c
18001c
38003c
7ffffc
fffffc
ENDCHAR
STARTCHAR Sum2
ENCODING 227
SWIDTH 1918 0
DWIDTH 35 0
BBX 32 42 1 -15
BITMAP
3ffffffc
1ffffffc
0e00003c
0f00001c
0780000c
0380000c
03c0000c
01c00004
00e00004
00f00000
00700000
00380000
003c0000
001c0000
001e0000
000f0000
00070000
00078000
0003c000
0001c000
0001e000
0000e000
0001c000
00038000
00030000
00060000
000e0000
001c0000
00180000
00300000
00700000
00e00000
01c00001
01800001
03000003
07000003
0e000003
0c000007
18000007
3800001f
7fffffff
ffffffff
ENDCHAR
STARTCHAR Product1
ENCODING 228
SWIDTH 1361 0
DWIDTH 25 0
BBX 23 28 1 -8
BITMAP
fffffe
380038
380038
380038
380038
380038
380038
380038
380038
380038
380038
380038
380038
380038
380038
380038
380038
380038
380038
380038
380038
380038
380038
380038
380038
380038
380038
fe00fe
ENDCHAR
STARTCHAR Product2
ENCODING 229
SWIDTH 1883 0
DWIDTH 34 0
BBX 30 42 2 -15
BITMAP
fffffffc
38000070
38000070
38000070
38000070
38000070
38000070
38000070
38000070
38000070
38000070
38000070
38000070
38000070
38000070
38000070
38000070
38000070
38000070
38000070
38000070
38000070
38000070
38000070
38000070
38000070
38000070
38000070
38000070
38000070
38000070
38000070
38000070
38000070
38000070
38000070
38000070
38000070
38000070
38000070
3c000070
fe0001fc
ENDCHAR
STARTCHAR Union1
ENCODING 230
SWIDTH 1295 0
DWIDTH 23 0
BBX 21 28 1 -8
BITMAP
c00018
c00018
c00018
c00018
c00018
c00018
c00018
c00018
c00018
c00018
c00018
c00018
c00018
c00018
c00018
c00018
c00018
c00018
c00018
c00018
e00018
600030
700030
300060
1800c0
0e0380
07ff00
01fc00
ENDCHAR
STARTCHAR Union2
ENCODING 231
SWIDTH 2064 0
DWIDTH 37 0
BBX 33 41 2 -14
BITMAP
c000000180
c000000180
c000000180
c000000180
c000000180
c000000180
c000000180
c000000180
c000000180
c000000180
c000000180
c000000180
c000000180
c000000180
c000000180
c000000180
c000000180
c000000180
c000000180
c000000180
c000000180
c000000180
c000000180
c000000180
c000000180
c000000180
c000000180
c000000180
c000000180
6000000300
6000000300
7000000700
3000000600
1800000c00
1c00001c00
0e00003800
0700007000
03c001e000
00f00f8000
003fff0000
000ff80000
ENDCHAR
STARTCHAR Intersect1
ENCODING 232
SWIDTH 1295 0
DWIDTH 23 0
BBX 21 28 1 -8
BITMAP
01fc00
07ff00
0e0380
1800c0
300060
700030
600030
e00018
c00018
c00018
c00018
c00018
c00018
c00018
c00018
c00018
c00018
c00018
c00018
c00018
c00018
c00018
c00018
c00018
c00018
c00018
c00018
c00018
ENDCHAR
STARTCHAR Intersect2
ENCODING 233
SWIDTH 2064 0
DWIDTH 37 0
BBX 33 41 2 -15
BITMAP
000ff80000
007fff0000
00f00f8000
03c001e000
0700007000
0e00003800
1c00001c00
1800000c00
3000000600
7000000700
6000000300
6000000300
c000000180
c000000180
c000000180
c000000180
c000000180
c000000180
c000000180
c000000180
c000000180
c000000180
c000000180
c000000180
c000000180
c000000180
c000000180
c000000180
c000000180
c000000180
c000000180
c000000180
c000000180
c000000180
c000000180
c000000180
c000000180
c000000180
c000000180
c000000180
c000000180
ENDCHAR
STARTCHAR Or1
ENCODING 234
SWIDTH 840 0
DWIDTH 15 0
BBX 13 16 1 -3
BITMAP
c018
4010
6030
6030
3060
3060
3060
18c0
18c0
0880
0d80
0d80
0500
0700
0700
0200
ENDCHAR
STARTCHAR Or2
ENCODING 235
SWIDTH 1256 0
DWIDTH 23 0
BBX 21 28 1 -8
BITMAP
c00018
600030
600030
600030
300060
300060
3800e0
1800c0
1800c0
1c01c0
0c0180
0c0180
0e0380
060300
060300
030600
030600
030600
018c00
018c00
018c00
00d800
00d800
00d800
007000
007000
007000
002000
ENDCHAR
STARTCHAR And1
ENCODING 236
SWIDTH 840 0
DWIDTH 15 0
BBX 13 16 1 -2
BITMAP
0200
0700
0700
0500
0d80
0d80
0880
18c0
18c0
3060
3060
3060
6030
6030
4010
c018
ENDCHAR
STARTCHAR And2
ENCODING 237
SWIDTH 1256 0
DWIDTH 23 0
BBX 21 28 1 -8
BITMAP
002000
007000
007000
007000
00d800
00d800
00d800
018c00
018c00
018c00
030600
030600
030600
060300
060300
0e0380
0c0180
0c0180
1c01c0
1800c0
1800c0
3800e0
300060
300060
600030
600030
600030
c00018
ENDCHAR
STARTCHAR SmallVee
ENCODING 238
SWIDTH 660 0
DWIDTH 12 0
BBX 9 7 1 1
BITMAP
c180
6300
6300
3600
1c00
1c00
0800
ENDCHAR
STARTCHAR SmallWedge
ENCODING 239
SWIDTH 660 0
DWIDTH 12 0
BBX 9 7 1 1
BITMAP
0800
1c00
1c00
3600
6300
6300
c180
ENDCHAR
STARTCHAR DoubleGrave
ENCODING 240
SWIDTH 467 0
DWIDTH 8 0
BBX 9 4 0 1
BITMAP
cc00
ee00
3300
1980
ENDCHAR
STARTCHAR Breve
ENCODING 241
SWIDTH 322 0
DWIDTH 6 0
BBX 6 4 0 0
BITMAP
84
cc
78
78
ENDCHAR
STARTCHAR DownBreve
ENCODING 242
SWIDTH 322 0
DWIDTH 6 0
BBX 6 4 0 0
BITMAP
78
78
cc
84
ENDCHAR
STARTCHAR OverTilde
ENCODING 243
SWIDTH 357 0
DWIDTH 6 0
BBX 6 3 0 1
BITMAP
64
fc
98
ENDCHAR
STARTCHAR Tilde2
ENCODING 244
SWIDTH 666 0
DWIDTH 12 0
BBX 12 3 0 1
BITMAP
3c10
7fe0
83c0
ENDCHAR
STARTCHAR Tilde3
ENCODING 245
SWIDTH 1000 0
DWIDTH 18 0
BBX 18 3 0 1
BITMAP
1f80c0
7fff80
c07e00
ENDCHAR
STARTCHAR Tilde4
ENCODING 246
SWIDTH 1333 0
DWIDTH 24 0
BBX 24 3 0 1
BITMAP
0ff803
3ffffc
c01ff0
ENDCHAR
STARTCHAR BackQuote
ENCODING 247
SWIDTH 348 0
DWIDTH 6 0
BBX 4 5 1 8
BITMAP
30
70
60
c0
80
ENDCHAR
STARTCHAR DblBackQuote
ENCODING 248
SWIDTH 577 0
DWIDTH 10 0
BBX 8 5 1 8
BITMAP
33
77
66
cc
88
ENDCHAR
STARTCHAR Quote
ENCODING 249
SWIDTH 348 0
DWIDTH 6 0
BBX 4 5 1 8
BITMAP
c0
e0
60
30
10
ENDCHAR
STARTCHAR DblQuote
ENCODING 250
SWIDTH 577 0
DWIDTH 10 0
BBX 8 5 1 8
BITMAP
cc
ee
66
33
11
ENDCHAR
STARTCHAR VertBar
ENCODING 251
SWIDTH 272 0
DWIDTH 5 0
BBX 2 13 2 -1
BITMAP
c0
c0
c0
c0
c0
c0
c0
c0
c0
c0
c0
c0
c0
ENDCHAR
STARTCHAR DblVertBar
ENCODING 252
SWIDTH 516 0
DWIDTH 9 0
BBX 5 13 2 -1
BITMAP
d8
d8
d8
d8
d8
d8
d8
d8
d8
d8
d8
d8
d8
ENDCHAR
STARTCHAR VertBarExten
ENCODING 253
SWIDTH 272 0
DWIDTH 5 0
BBX 2 10 2 -1
BITMAP
c0
c0
c0
c0
c0
c0
c0
c0
c0
c0
ENDCHAR
STARTCHAR DblVertBarExten
ENCODING 254
SWIDTH 516 0
DWIDTH 9 0
BBX 5 10 2 -1
BITMAP
d8
d8
d8
d8
d8
d8
d8
d8
d8
d8
ENDCHAR
STARTCHAR Coproduct
ENCODING 255
SWIDTH 733 0
DWIDTH 13 0
BBX 11 12 1 0
BITMAP
fbe0
71c0
71c0
71c0
71c0
71c0
71c0
71c0
71c0
71c0
71c0
ffe0
ENDCHAR
ENDFONT
